<svg width="30" height="30" viewBox="0 0 30 30" fill="none" xmlns="http://www.w3.org/2000/svg">
<path d="M5 5H7.18845C7.9384 5 8.31337 5 8.58464 5.21179C8.8559 5.42359 8.94684 5.78737 9.12873 6.51493L9.39366 7.57464C9.61068 8.44272 9.71919 8.87676 9.96139 9.19979C10.1742 9.48363 10.4587 9.70575 10.7857 9.84337C11.1578 10 11.6052 10 12.5 10V10" stroke="white" stroke-width="2" stroke-linecap="round"/>
<path d="M22.5 21.25H9.43863C8.94435 21.25 8.69721 21.25 8.52028 21.1802C8.1567 21.0367 7.91007 20.6945 7.88889 20.3042C7.87859 20.1142 7.95674 19.8798 8.11305 19.4109V19.4109C8.28636 18.8909 8.37302 18.6309 8.50757 18.421C8.78159 17.9933 9.20803 17.686 9.70036 17.5612C9.94212 17.5 10.2162 17.5 10.7642 17.5H17.5" stroke="white" stroke-width="2" stroke-linecap="round" stroke-linejoin="round"/>
<path d="M18.7779 17.5H13.3885C11.7702 17.5 10.961 17.5 10.4015 17.026C9.84201 16.5521 9.70899 15.7539 9.44293 14.1576L9.3322 13.4932C9.06194 11.8716 8.92681 11.0609 9.37616 10.5304C9.82551 10 10.6475 10 12.2914 10H21.7639C23.2143 10 23.9395 10 24.2326 10.4743C24.5257 10.9485 24.2014 11.5972 23.5528 12.8944L22.3556 15.2889C21.8177 16.3647 21.5487 16.9026 21.0654 17.2013C20.5821 17.5 19.9807 17.5 18.7779 17.5Z" stroke="white" stroke-width="2" stroke-linecap="round"/>
<circle cx="21.25" cy="25" r="1.25" fill="white"/>
<circle cx="11.25" cy="25" r="1.25" fill="white"/>
</svg>
