<svg width="30" height="30" viewBox="0 0 30 30" fill="none" xmlns="http://www.w3.org/2000/svg">
<path d="M26.2501 8.41247C26.2251 8.41247 26.1876 8.41247 26.1501 8.41247C19.5376 7.74997 12.9376 7.49997 6.40008 8.16247L3.85008 8.41247C3.32508 8.46247 2.86258 8.08747 2.81258 7.56247C2.76258 7.03747 3.13758 6.58747 3.65008 6.53747L6.20008 6.28747C12.8501 5.61247 19.5876 5.87497 26.3376 6.53747C26.8501 6.58747 27.2251 7.04997 27.1751 7.56247C27.1376 8.04997 26.7251 8.41247 26.2501 8.41247Z" fill="white"/>
<path d="M10.625 7.15C10.575 7.15 10.525 7.15 10.4625 7.1375C9.96245 7.05 9.61245 6.5625 9.69995 6.0625L9.97495 4.425C10.175 3.225 10.45 1.5625 13.3625 1.5625H16.6375C19.5625 1.5625 19.8375 3.2875 20.025 4.4375L20.2999 6.0625C20.3874 6.575 20.0374 7.0625 19.5374 7.1375C19.025 7.225 18.5375 6.875 18.4625 6.375L18.1875 4.75C18.0125 3.6625 17.9749 3.45 16.65 3.45H13.375C12.05 3.45 12.025 3.625 11.8375 4.7375L11.55 6.3625C11.475 6.825 11.075 7.15 10.625 7.15Z" fill="white"/>
<path d="M19.0125 28.4375H10.9875C6.625 28.4375 6.45 26.025 6.3125 24.075L5.5 11.4875C5.4625 10.975 5.8625 10.525 6.375 10.4875C6.9 10.4625 7.3375 10.85 7.375 11.3625L8.1875 23.95C8.325 25.85 8.375 26.5625 10.9875 26.5625H19.0125C21.6375 26.5625 21.6875 25.85 21.8125 23.95L22.625 11.3625C22.6625 10.85 23.1125 10.4625 23.625 10.4875C24.1375 10.525 24.5375 10.9625 24.5 11.4875L23.6875 24.075C23.55 26.025 23.375 28.4375 19.0125 28.4375Z" fill="white"/>
<path d="M17.0751 21.5625H12.9126C12.4001 21.5625 11.9751 21.1375 11.9751 20.625C11.9751 20.1125 12.4001 19.6875 12.9126 19.6875H17.0751C17.5876 19.6875 18.0126 20.1125 18.0126 20.625C18.0126 21.1375 17.5876 21.5625 17.0751 21.5625Z" fill="white"/>
<path d="M18.125 16.5625H11.875C11.3625 16.5625 10.9375 16.1375 10.9375 15.625C10.9375 15.1125 11.3625 14.6875 11.875 14.6875H18.125C18.6375 14.6875 19.0625 15.1125 19.0625 15.625C19.0625 16.1375 18.6375 16.5625 18.125 16.5625Z" fill="white"/>
</svg>
